PathFileType	4	(X/Y/Z)	SUBJ59_2_walk_RCNL2025.trc
DataRate	CameraRate	NumFrames	NumMarkers	Units	OrigDataRate	OrigDataStartFrame	OrigNumFrames
100	100	6	25	mm	100	123	327
Frame#	Time	R_Shoulder			L_Shoulder			C7			J_Notch			R_Elbow			L_Elbow			R_Wrist			L_Wrist			R_Asis			L_Asis			Sacral			Thoracic			Sternum			R_Thigh_Lateral			R_Knee_Lateral			R_Shank_Lateral			R_Ankle_Lateral			R_Heel			R_Toe			L_Thigh_Lateral			L_Knee_Lateral			L_Shank_Lateral			L_Ankle_Lateral			L_Heel			L_Toe		
		X1	Y1	Z1	X2	Y2	Z2	X3	Y3	Z3	X4	Y4	Z4	X5	Y5	Z5	X6	Y6	Z6	X7	Y7	Z7	X8	Y8	Z8	X9	Y9	Z9	X10	Y10	Z10	X11	Y11	Z11	X12	Y12	Z12	X13	Y13	Z13	X14	Y14	Z14	X15	Y15	Z15	X16	Y16	Z16	X17	Y17	Z17	X18	Y18	Z18	X19	Y19	Z19	X20	Y20	Z20	X21	Y21	Z21	X22	Y22	Z22	X23	Y23	Z23	X24	Y24	Z24	X25	Y25	Z25
123	1.22000000	-864.361267	1425.446655	396.124115	-850.628052	1482.023071	-1.123752	-951.671814	1537.124268	196.091370	-790.011475	1439.428467	192.034302	-958.638428	1114.351318	468.134979	-801.588318	1158.198486	-132.748032	-956.977997	834.150909	469.873642	-647.266937	946.954987	-82.953457	-794.817505	977.647705	292.545990	-804.562744	975.485535	66.885117	-1017.551086	1002.768250	187.093246	-1018.005127	1323.870972	165.117554	-738.410156	1243.756226	174.666855	-771.330750	591.769043	388.654907	-744.115417	504.946411	331.700073	-707.218811	311.927124	407.561707	-638.914673	69.470825	297.286591	-667.217346	51.187737	246.119934	-478.707428	95.215736	275.840210	-954.163940	597.065613	0.481934	-975.651733	492.113739	64.073166	-1029.249023	298.241211	10.237569	-1093.418457	80.307426	98.981705	-1141.054565	63.916897	151.922379	-937.530762	35.839809	139.967957
124	1.23000000	-853.346924	1422.644287	397.487122	-839.109558	1481.003418	0.496215	-940.470886	1535.226318	197.835587	-778.856384	1437.365112	193.521240	-948.234802	1111.500854	468.412048	-789.989685	1158.045532	-132.912277	-947.823181	831.318726	469.679092	-633.136841	949.283203	-81.765980	-783.271362	975.612183	292.465881	-793.376465	974.083740	66.551620	-1006.265808	1000.761597	187.821091	-1007.010925	1322.289307	166.058029	-727.476624	1241.747559	175.332901	-763.862305	587.526611	388.174835	-733.301636	502.919556	330.775513	-690.077454	311.435211	407.143158	-615.930603	69.901688	297.257233	-644.214966	50.995491	246.662567	-456.215179	99.712440	274.870605	-945.741150	596.168640	0.242423	-968.447998	491.464203	63.933254	-1025.107544	298.259125	10.124682	-1092.764648	81.351128	98.858910	-1140.625854	65.518501	151.741776	-937.458191	35.827099	139.989563
125	1.24000000	-842.221802	1419.916626	398.925507	-827.461426	1480.072754	2.225467	-929.181091	1533.403564	199.688461	-767.608459	1435.391846	195.085098	-937.582947	1108.703857	468.788116	-778.684509	1157.893677	-132.938675	-938.261780	828.546783	469.551239	-619.568146	951.449890	-80.622570	-771.654297	973.657715	292.389038	-782.003784	972.759460	66.174034	-994.883606	998.920959	188.585037	-995.893982	1320.760864	167.086349	-716.440674	1239.834106	176.060318	-755.666748	583.870605	387.740204	-721.982544	501.251404	329.982880	-673.698242	311.048035	406.676208	-595.950867	70.159286	296.902924	-624.401062	50.855747	246.946472	-436.707794	102.911629	273.391052	-937.120483	595.310791	-0.001249	-960.946716	490.813965	63.758400	-1020.725098	298.331360	9.916589	-1092.000366	82.552338	98.669205	-1140.135254	67.360107	151.475586	-937.361084	35.805630	140.005798
126	1.25000000	-830.985352	1417.287354	400.441528	-815.726013	1479.246094	4.057322	-917.799255	1531.673218	201.651581	-756.263855	1433.537231	196.724106	-926.689758	1105.983398	469.263214	-767.677307	1157.761841	-132.824615	-928.287323	825.857147	469.499802	-606.528900	953.440582	-79.554304	-759.949524	971.821533	292.330566	-770.527893	971.459839	65.810257	-983.391357	997.274597	189.360123	-984.641968	1319.300537	168.196152	-705.281860	1238.044067	176.848175	-746.346130	581.002686	387.320160	-710.111389	499.915405	329.302704	-658.262329	310.593323	406.119507	-579.027588	70.053383	296.221252	-607.816162	50.554131	246.917542	-420.171326	104.540848	271.463959	-928.317078	594.507385	-0.254127	-953.145020	490.169830	63.536980	-1016.062561	298.496887	9.616271	-1091.120117	83.934143	98.397659	-1139.573730	69.466331	151.108185	-937.239685	35.779930	140.012299
127	1.26000000	-819.636169	1414.776367	402.039917	-803.965332	1478.534302	5.976970	-906.322998	1530.051147	203.726868	-744.817200	1431.824585	198.438934	-915.563477	1103.358643	469.837769	-756.963379	1157.665894	-132.567490	-917.894318	823.268463	469.537064	-594.002106	955.237366	-78.581203	-748.137390	970.138672	292.309326	-759.015320	970.150085	65.513611	-971.775513	995.836060	190.127365	-973.244873	1317.924683	169.380798	-693.982178	1236.403564	177.698853	-735.632935	579.038574	386.896881	-697.700745	498.865814	328.715729	-643.937134	309.921997	405.442688	-565.086426	69.473930	295.252228	-594.361938	49.949551	246.548096	-406.491943	104.446556	269.183594	-919.336487	593.772644	-0.515579	-945.029602	489.537567	63.257835	-1011.096130	298.798981	9.246079	-1090.119385	85.519386	98.028931	-1138.928711	71.862633	150.624191	-937.093323	35.753452	140.003464
128	1.27000000	-808.171326	1412.398315	403.725525	-792.247009	1477.950439	7.963155	-894.749756	1528.553711	205.918045	-733.262329	1430.271484	200.231995	-904.213806	1100.844727	470.513763	-746.530396	1157.618652	-132.164688	-907.079071	820.794464	469.672440	-581.983856	956.820068	-77.709196	-736.198486	968.641479	292.341980	-747.490112	968.822510	65.322845	-960.025940	994.603821	190.874222	-961.697205	1316.653931	170.635117	-682.524719	1234.937378	178.615707	-723.442871	577.997864	386.466827	-684.824341	498.055847	328.211060	-630.832520	308.945801	404.640503	-553.917786	68.413460	294.075043	-583.790527	49.009632	245.847610	-395.446289	102.613937	266.663177	-910.171692	593.117798	-0.779561	-936.574951	488.921753	62.913437	-1005.830261	299.272278	8.846258	-1088.991821	87.332802	97.550705	-1138.179810	74.578224	150.014893	-936.920410	35.727577	139.973953
